<?xml version="1.0" standalone="no"?>
<!DOCTYPE svg PUBLIC "-//W3C//DTD SVG 20010904//EN"
 "http://www.w3.org/TR/2001/REC-SVG-20010904/DTD/svg10.dtd">
<svg version="1.0" xmlns="http://www.w3.org/2000/svg"
 width="1046.000000pt" height="1049.000000pt" viewBox="0 0 1046.000000 1049.000000"
 preserveAspectRatio="xMidYMid meet">

<g transform="translate(0.000000,1049.000000) scale(0.100000,-0.100000)"
fill="#000000" stroke="none">
<path d="M2377 8610 c-4 -322 -11 -713 -16 -870 -6 -157 -11 -339 -12 -405 0
-66 -3 -143 -6 -172 l-6 -52 -97 -65 -97 -64 -7 -70 c-7 -68 -8 -70 -53 -103
-42 -29 -45 -34 -28 -43 10 -6 38 -25 64 -42 25 -17 93 -55 151 -86 58 -30
193 -104 300 -163 1155 -638 1273 -703 1289 -707 11 -2 21 43 46 197 18 110
36 223 39 250 4 28 22 147 41 265 19 118 58 357 85 530 88 547 120 742 125
749 2 4 60 -2 128 -14 l124 -22 444 -393 c244 -216 489 -432 544 -480 55 -48
219 -193 365 -321 145 -129 323 -285 395 -348 71 -63 168 -151 215 -195 47
-45 114 -106 150 -135 36 -30 99 -84 140 -121 68 -61 138 -123 490 -434 197
-174 437 -387 635 -562 105 -93 220 -194 255 -224 36 -30 109 -94 163 -143
l99 -87 51 42 c753 617 1208 1288 1312 1933 22 132 21 362 0 491 -48 289 -188
562 -399 782 -173 180 -338 300 -577 422 -120 61 -324 148 -414 177 -35 11
-35 -26 -4 398 10 149 22 360 26 470 l6 201 -825 -1 -825 0 -6 -290 c-4 -159
-7 -347 -7 -417 l0 -128 -77 0 c-43 0 -121 -4 -173 -10 -52 -6 -180 -17 -285
-26 -316 -26 -741 -94 -1064 -170 -57 -13 -105 -23 -106 -22 -1 2 -17 41 -35
88 -18 47 -36 90 -40 95 -4 6 -24 53 -43 105 -20 52 -66 167 -103 255 -36 88
-88 216 -116 285 -27 69 -60 150 -73 180 l-24 54 -1079 1 -1079 0 -6 -585z"/>
<path d="M2136 6453 c-3 -82 -7 -186 -8 -232 l-2 -84 38 -33 c21 -18 43 -31
49 -27 6 3 7 2 4 -4 -3 -5 16 -31 42 -57 l49 -48 7 239 c4 131 8 251 9 266 1
25 -8 32 -90 77 l-91 50 -7 -147z"/>
<path d="M1556 6513 c-3 -4 10 -24 31 -45 l37 -38 -84 -77 c-332 -309 -650
-738 -811 -1095 -353 -782 -202 -1498 421 -1999 184 -148 459 -297 725 -394
l89 -32 -3 -45 c-1 -28 3 -48 11 -55 7 -6 53 -21 102 -34 l88 -24 -6 -125 c-4
-69 -15 -224 -26 -345 -12 -121 -23 -318 -27 -437 l-6 -218 825 0 826 0 6 52
c3 29 9 270 12 534 l7 481 131 7 c270 14 676 67 982 127 86 16 162 28 168 26
7 -3 18 -23 26 -46 7 -23 16 -41 19 -41 3 0 73 16 155 35 82 19 152 32 156 30
4 -3 27 -49 50 -102 23 -54 58 -132 77 -173 20 -41 48 -109 63 -150 16 -41 60
-151 100 -245 39 -93 89 -217 111 -275 22 -58 55 -140 72 -182 l32 -78 1061 0
1061 0 7 453 c7 491 21 1013 33 1282 5 94 8 223 8 289 l0 118 -210 112 c-826
441 -1144 611 -1310 701 -104 56 -370 198 -590 316 -220 117 -447 239 -505
270 -58 31 -108 54 -112 52 -4 -2 -9 -29 -13 -61 -11 -109 -251 -1610 -261
-1637 -5 -11 -14 -15 -28 -11 -11 2 -64 12 -116 21 l-94 16 -95 87 c-52 48
-311 290 -575 537 -265 248 -704 659 -976 915 -272 255 -601 563 -730 685
-129 121 -327 306 -439 410 -473 441 -456 427 -475 408z"/>
<path d="M4005 5953 c-11 -89 -53 -334 -58 -340 -3 -2 -23 5 -46 17 -46 23
-47 21 -27 -23 8 -18 28 -68 44 -112 17 -44 68 -165 113 -270 45 -104 92 -219
104 -255 13 -36 37 -96 55 -135 18 -38 48 -108 67 -155 19 -47 41 -98 50 -115
8 -16 43 -100 78 -185 34 -85 82 -198 105 -250 98 -220 130 -296 130 -311 0
-20 126 -140 143 -136 6 1 11 -3 10 -10 -4 -17 136 -145 150 -137 7 4 9 3 4
-1 -4 -5 7 -24 25 -42 l33 -34 16 103 16 103 -57 125 c-32 69 -94 211 -138
315 -44 105 -101 237 -127 295 -26 58 -76 175 -110 260 -35 85 -70 169 -78
185 -9 17 -31 68 -50 115 -19 47 -49 117 -67 155 -18 39 -42 99 -55 135 -12
36 -57 146 -100 245 -80 185 -145 342 -149 360 -1 6 -9 26 -18 45 -8 19 -20
52 -27 73 -7 20 -16 37 -21 37 -4 0 -11 -26 -15 -57z"/>
<path d="M6410 5793 c0 -32 -4 -191 -9 -353 -6 -162 -13 -394 -16 -515 l-6
-221 90 -48 91 -47 1 78 c0 43 3 89 5 103 5 30 12 218 24 605 l9 290 -77 73
c-111 105 -112 105 -112 35z"/>
</g>
</svg>
